%TF.GenerationSoftware,KiCad,Pcbnew,(6.0.4)*%
%TF.CreationDate,2023-08-24T18:54:07-03:00*%
%TF.ProjectId,PCB drive motor,50434220-6472-4697-9665-206d6f746f72,rev?*%
%TF.SameCoordinates,PX1a3bac8PY5add478*%
%TF.FileFunction,Soldermask,Bot*%
%TF.FilePolarity,Negative*%
%FSLAX46Y46*%
G04 Gerber Fmt 4.6, Leading zero omitted, Abs format (unit mm)*
G04 Created by KiCad (PCBNEW (6.0.4)) date 2023-08-24 18:54:07*
%MOMM*%
%LPD*%
G01*
G04 APERTURE LIST*
%TA.AperFunction,Profile*%
%ADD10C,0.100000*%
%TD*%
%ADD11R,2.000000X4.600000*%
%ADD12O,2.000000X4.200000*%
%ADD13O,4.200000X2.000000*%
%ADD14R,1.600000X1.600000*%
%ADD15C,1.600000*%
%ADD16R,1.700000X1.700000*%
%ADD17R,2.600000X2.600000*%
%ADD18C,2.600000*%
%ADD19C,6.000000*%
%ADD20O,1.700000X1.700000*%
%ADD21O,3.500000X3.500000*%
%ADD22R,1.905000X2.000000*%
%ADD23O,1.905000X2.000000*%
%ADD24R,1.800000X1.800000*%
%ADD25C,1.800000*%
%ADD26O,1.600000X1.600000*%
%ADD27R,3.200000X3.200000*%
%ADD28O,3.200000X3.200000*%
G04 APERTURE END LIST*
D10*
X0Y55523400D02*
X143581400Y55523400D01*
X143581400Y55523400D02*
X143581400Y0D01*
X143581400Y0D02*
X0Y0D01*
X0Y0D02*
X0Y55523400D01*
D11*
%TO.C,J1*%
X11811000Y15485000D03*
D12*
X5511000Y15485000D03*
D13*
X8911000Y10685000D03*
%TD*%
D14*
%TO.C,C17*%
X64296288Y18610000D03*
D15*
X66796288Y18610000D03*
%TD*%
D16*
%TO.C,J4*%
X140026400Y8935000D03*
%TD*%
D14*
%TO.C,C7*%
X59436513Y20250000D03*
D15*
X56936513Y20250000D03*
%TD*%
D17*
%TO.C,J3*%
X119921400Y31345000D03*
D18*
X114921400Y31345000D03*
X109921400Y31345000D03*
X104921400Y31345000D03*
X99921400Y31345000D03*
X94921400Y31345000D03*
X89921400Y31345000D03*
X84921400Y31345000D03*
X79921400Y31345000D03*
X74921400Y31345000D03*
X69921400Y31345000D03*
X64921400Y31345000D03*
%TD*%
D19*
%TO.C,03*%
X139551400Y51590000D03*
%TD*%
D16*
%TO.C,J8*%
X140036400Y43985000D03*
D20*
X140036400Y46525000D03*
%TD*%
D21*
%TO.C,U6*%
X112961400Y-3650000D03*
D22*
X115501400Y13010000D03*
D23*
X112961400Y13010000D03*
X110421400Y13010000D03*
%TD*%
D21*
%TO.C,U2*%
X84751400Y-3590000D03*
D22*
X87291400Y13070000D03*
D23*
X84751400Y13070000D03*
X82211400Y13070000D03*
%TD*%
D14*
%TO.C,C8*%
X104301400Y21540000D03*
D15*
X101801400Y21540000D03*
%TD*%
D21*
%TO.C,U4*%
X98891400Y-3560000D03*
D22*
X101431400Y13100000D03*
D23*
X98891400Y13100000D03*
X96351400Y13100000D03*
%TD*%
D16*
%TO.C,J11*%
X140036400Y25655000D03*
D20*
X140036400Y28195000D03*
%TD*%
D21*
%TO.C,U5*%
X70481400Y-3170000D03*
D22*
X73021400Y13490000D03*
D23*
X70481400Y13490000D03*
X67941400Y13490000D03*
%TD*%
D21*
%TO.C,U3*%
X56361400Y-3150000D03*
D22*
X58901400Y13510000D03*
D23*
X56361400Y13510000D03*
X53821400Y13510000D03*
%TD*%
D14*
%TO.C,C1*%
X45236513Y20840000D03*
D15*
X42736513Y20840000D03*
%TD*%
D14*
%TO.C,C11*%
X50541400Y18380000D03*
D15*
X53041400Y18380000D03*
%TD*%
D14*
%TO.C,C5*%
X37436288Y17780000D03*
D15*
X39936288Y17780000D03*
%TD*%
D19*
%TO.C,04*%
X139561400Y3540000D03*
%TD*%
D17*
%TO.C,J2*%
X59671400Y31350000D03*
D18*
X54671400Y31350000D03*
X49671400Y31350000D03*
X44671400Y31350000D03*
X39671400Y31350000D03*
X34671400Y31350000D03*
X29671400Y31350000D03*
X24671400Y31350000D03*
X19671400Y31350000D03*
X14671400Y31350000D03*
X9671400Y31350000D03*
X4671400Y31350000D03*
%TD*%
D16*
%TO.C,J10*%
X140036400Y37865000D03*
D20*
X140036400Y40405000D03*
%TD*%
D24*
%TO.C,D2*%
X11226400Y4730000D03*
D25*
X13766400Y4730000D03*
%TD*%
D14*
%TO.C,C2*%
X89501400Y21730000D03*
D15*
X87001400Y21730000D03*
%TD*%
%TO.C,R1*%
X18841400Y12400000D03*
D26*
X18841400Y2240000D03*
%TD*%
D14*
%TO.C,C12*%
X95061400Y17640000D03*
D15*
X97561400Y17640000D03*
%TD*%
D14*
%TO.C,C14*%
X117791400Y21000000D03*
D15*
X115291400Y21000000D03*
%TD*%
D14*
%TO.C,C3*%
X17416288Y17180000D03*
D15*
X19916288Y17180000D03*
%TD*%
D16*
%TO.C,J9*%
X140036400Y31765000D03*
D20*
X140036400Y34305000D03*
%TD*%
D27*
%TO.C,D1*%
X28011400Y5980000D03*
D28*
X28011400Y21220000D03*
%TD*%
D14*
%TO.C,C18*%
X109956288Y17830000D03*
D15*
X112456288Y17830000D03*
%TD*%
D16*
%TO.C,J12*%
X140041400Y13450000D03*
D20*
X140041400Y15990000D03*
%TD*%
D14*
%TO.C,C13*%
X74596513Y20620000D03*
D15*
X72096513Y20620000D03*
%TD*%
D19*
%TO.C,02*%
X4001400Y51470000D03*
%TD*%
D21*
%TO.C,U1*%
X42941400Y-3400000D03*
D22*
X45481400Y13260000D03*
D23*
X42941400Y13260000D03*
X40401400Y13260000D03*
%TD*%
D16*
%TO.C,J13*%
X140036400Y19550000D03*
D20*
X140036400Y22090000D03*
%TD*%
D16*
%TO.C,J14*%
X8691400Y23225000D03*
D20*
X11231400Y23225000D03*
%TD*%
D14*
%TO.C,C6*%
X80676288Y17560000D03*
D15*
X83176288Y17560000D03*
%TD*%
D19*
%TO.C,01*%
X4011400Y4050000D03*
%TD*%
M02*
