M48
; DRILL file {KiCad (6.0.4)} date Thu Aug 24 18:54:27 2023
; FORMAT={-:-/ absolute / metric / decimal}
; #@! TF.CreationDate,2023-08-24T18:54:27-03:00
; #@! TF.GenerationSoftware,Kicad,Pcbnew,(6.0.4)
; #@! TF.FileFunction,Plated,1,2,PTH
FMAT,2
METRIC
; #@! TA.AperFunction,Plated,PTH,ComponentDrill
T1C0.800
; #@! TA.AperFunction,Plated,PTH,ComponentDrill
T2C0.900
; #@! TA.AperFunction,Plated,PTH,ComponentDrill
T3C1.000
; #@! TA.AperFunction,Plated,PTH,ComponentDrill
T4C1.100
; #@! TA.AperFunction,Plated,PTH,ComponentDrill
T5C1.300
; #@! TA.AperFunction,Plated,PTH,ComponentDrill
T6C1.600
%
G90
G05
T1
X17.416Y17.18
X18.841Y12.4
X18.841Y2.24
X19.916Y17.18
X37.436Y17.78
X39.936Y17.78
X42.737Y20.84
X45.237Y20.84
X50.541Y18.38
X53.041Y18.38
X56.937Y20.25
X59.437Y20.25
X64.296Y18.61
X66.796Y18.61
X72.097Y20.62
X74.597Y20.62
X80.676Y17.56
X83.176Y17.56
X87.001Y21.73
X89.501Y21.73
X95.061Y17.64
X97.561Y17.64
X101.801Y21.54
X104.301Y21.54
X109.956Y17.83
X112.456Y17.83
X115.291Y21.0
X117.791Y21.0
T2
X11.226Y4.73
X13.766Y4.73
T3
X8.691Y23.225
X11.231Y23.225
X140.026Y8.935
X140.036Y46.525
X140.036Y43.985
X140.036Y40.405
X140.036Y37.865
X140.036Y34.305
X140.036Y31.765
X140.036Y28.195
X140.036Y25.655
X140.036Y22.09
X140.036Y19.55
X140.041Y15.99
X140.041Y13.45
T4
X40.401Y13.26
X42.941Y13.26
X45.481Y13.26
X53.821Y13.51
X56.361Y13.51
X58.901Y13.51
X67.941Y13.49
X70.481Y13.49
X73.021Y13.49
X82.211Y13.07
X84.751Y13.07
X87.291Y13.07
X96.351Y13.1
X98.891Y13.1
X101.431Y13.1
X110.421Y13.01
X112.961Y13.01
X115.501Y13.01
T5
X4.671Y31.35
X9.671Y31.35
X14.671Y31.35
X19.671Y31.35
X24.671Y31.35
X29.671Y31.35
X34.671Y31.35
X39.671Y31.35
X44.671Y31.35
X49.671Y31.35
X54.671Y31.35
X59.671Y31.35
X64.921Y31.345
X69.921Y31.345
X74.921Y31.345
X79.921Y31.345
X84.921Y31.345
X89.921Y31.345
X94.921Y31.345
X99.921Y31.345
X104.921Y31.345
X109.921Y31.345
X114.921Y31.345
X119.921Y31.345
T6
X28.011Y21.22
X28.011Y5.98
T3
G00X5.511Y16.585
M15
G01X5.511Y14.385
M16
G05
G00X10.011Y10.685
M15
G01X7.811Y10.685
M16
G05
G00X11.811Y16.785
M15
G01X11.811Y14.185
M16
G05
T0
M30
